<?xml version="1.0" encoding="UTF-8"?>
<svg width="100" height="100" version="1.1" viewBox="0 0 100 100" xmlns="http://www.w3.org/2000/svg" xmlns:xlink="http://www.w3.org/1999/xlink">
    <!--Generated by IJSVG (https://github.com/iconjar/IJSVG)-->
    <g transform="scale(4.16667)">
        <path fill="none" d="M0,0h24v24h-24Z"></path>
        <path fill="#54A5F0" d="M9,11.5c0.965,0 1.75,-0.785 1.75,-1.75c0,-0.965 -0.785,-1.75 -1.75,-1.75c-0.965,0 -1.75,0.785 -1.75,1.75c0,0.965 0.785,1.75 1.75,1.75Zm0,-2c0.138,0 0.25,0.112 0.25,0.25c0,0.276 -0.5,0.276 -0.5,0c0,-0.138 0.112,-0.25 0.25,-0.25Z"></path>
        <path fill="#54A5F0" d="M12,2c-5.514,0 -10,4.486 -10,10c0,5.515 4.486,10 10,10c5.514,0 10,-4.485 10,-10c0,-5.514 -4.486,-10 -10,-10Zm0,18c-4.411,0 -8,-3.589 -8,-8c0,-4.411 3.589,-8 8,-8c4.411,0 8,3.589 8,8c0,4.411 -3.589,8 -8,8Z"></path>
        <path fill="#54A5F0" d="M12,16c-1.268,0 -2.434,-0.582 -3.199,-1.598l-1.598,1.203c1.147,1.523 2.895,2.395 4.797,2.395c1.905,0 3.655,-0.874 4.8,-2.399l-1.6,-1.202c-0.763,1.018 -1.93,1.601 -3.2,1.601Z"></path>
        <path fill="#54A5F0" d="M13,9h4v2h-4Z"></path>
    </g>
</svg>