<?xml version="1.0" encoding="UTF-8"?>
<svg width="100" height="100" version="1.1" viewBox="0 0 100 100" xmlns="http://www.w3.org/2000/svg" xmlns:xlink="http://www.w3.org/1999/xlink">
    <!--Generated by IJSVG (https://github.com/iconjar/IJSVG)-->
    <g transform="scale(4.16667)">
        <path fill="none" d="M0,0h24v24h-24Z"></path>
        <path fill="#757575" d="M2,8h16v7h2v-8c0,-0.007 -0.003,-0.012 -0.004,-0.018c-0.002,-0.117 -0.026,-0.23 -0.068,-0.339c-0.011,-0.028 -0.025,-0.053 -0.038,-0.08c-0.02,-0.038 -0.032,-0.08 -0.058,-0.117l-4,-6c-0.186,-0.279 -0.497,-0.446 -0.832,-0.446h-10c-0.334,0 -0.646,0.167 -0.832,0.445l-4,6c-0.024,0.037 -0.038,0.079 -0.057,0.118c-0.013,0.027 -0.028,0.052 -0.039,0.08c-0.042,0.109 -0.066,0.222 -0.068,0.339c-3.46945e-18,0.006 -0.004,0.011 -0.004,0.018v12c0,0.552 0.448,1 1,1h12v-2h-11v-10Zm15.132,-2h-6.132v-4h3.465l2.667,4Zm-11.597,-4h3.465v4h-6.131l2.666,-4Z"></path>
        <path fill="#757575" d="M22.293,16.287l-4.293,4.293l-2.293,-2.293l-1.414,1.414l3.707,3.707l5.707,-5.707Z"></path>
    </g>
</svg>