<?xml version="1.0" encoding="UTF-8"?>
<svg width="100" height="100" version="1.1" viewBox="0 -161.538 100 100" xmlns="http://www.w3.org/2000/svg" xmlns:xlink="http://www.w3.org/1999/xlink">
    <!--Generated by IJSVG (https://github.com/iconjar/IJSVG)-->
    <path d="M21.4286,-37.5c0,-0.290179 -0.106026,-0.541295 -0.31808,-0.753348c-0.212053,-0.212054 -0.46317,-0.318081 -0.753348,-0.318081c-0.290179,0 -0.541295,0.106027 -0.753348,0.318081l-2.46094,2.4442v-4.90513c0,-0.290178 -0.106027,-0.541294 -0.31808,-0.753348c-0.212054,-0.212054 -0.46317,-0.31808 -0.753348,-0.31808c-0.290179,0 -0.541295,0.106026 -0.753349,0.31808c-0.212053,0.212054 -0.31808,0.46317 -0.31808,0.753348v4.90513l-2.46094,-2.4442c-0.212053,-0.212054 -0.463169,-0.318081 -0.753348,-0.318081c-0.290178,0 -0.541294,0.106027 -0.753348,0.318081c-0.212054,0.212053 -0.31808,0.463169 -0.31808,0.753348c0,0.290179 0.106026,0.541295 0.31808,0.753348l4.28571,4.28571c0.212054,0.212054 0.46317,0.318081 0.753349,0.318081c0.290178,0 0.541294,-0.106027 0.753348,-0.318081l4.28571,-4.28571c0.212054,-0.212053 0.31808,-0.463169 0.31808,-0.753348Zm-10.7143,13.9286c0,0.591518 -0.209264,1.09654 -0.62779,1.51507c-0.418527,0.418527 -0.92355,0.627791 -1.51507,0.627791c-0.591518,0 -1.09654,-0.209264 -1.51507,-0.627791c-0.418527,-0.418526 -0.627791,-0.923549 -0.627791,-1.51507c0,-0.591517 0.209264,-1.09654 0.627791,-1.51507c0.418526,-0.418526 0.923549,-0.62779 1.51507,-0.62779c0.591517,0 1.09654,0.209264 1.51507,0.62779c0.418526,0.418527 0.62779,0.92355 0.62779,1.51507Zm15,0c0,0.591518 -0.209264,1.09654 -0.62779,1.51507c-0.418527,0.418527 -0.92355,0.627791 -1.51507,0.627791c-0.591518,0 -1.09654,-0.209264 -1.51507,-0.627791c-0.418527,-0.418526 -0.627791,-0.923549 -0.627791,-1.51507c0,-0.591517 0.209264,-1.09654 0.627791,-1.51507c0.418526,-0.418526 0.923549,-0.62779 1.51507,-0.62779c0.591517,0 1.09654,0.209264 1.51507,0.62779c0.418526,0.418527 0.62779,0.92355 0.62779,1.51507Zm2.14286,-18.2143v8.57143c0,0.267857 -0.089286,0.505023 -0.267857,0.711496c-0.178572,0.206473 -0.407366,0.326451 -0.686384,0.359933l-17.4777,2.04241c0.011161,0.078125 0.036273,0.198102 0.075335,0.359933c0.039063,0.16183 0.072545,0.309709 0.100446,0.443638c0.027902,0.133929 0.041853,0.256696 0.041853,0.368304c0,0.178571 -0.133928,0.535714 -0.401786,1.07143h15.4018c0.290179,0 0.541295,0.106027 0.753348,0.318081c0.212054,0.212053 0.318081,0.463169 0.318081,0.753348c0,0.290178 -0.106027,0.541294 -0.318081,0.753348c-0.212053,0.212054 -0.463169,0.31808 -0.753348,0.31808h-17.1429c-0.290179,0 -0.541295,-0.106026 -0.753348,-0.31808c-0.212054,-0.212054 -0.318081,-0.46317 -0.318081,-0.753348c0,-0.15625 0.061384,-0.376674 0.184152,-0.661273c0.122768,-0.284598 0.287389,-0.616629 0.493862,-0.996093c0.206473,-0.379465 0.32087,-0.591518 0.343192,-0.636161l-2.96317,-13.7779h-3.41518c-0.290179,0 -0.541295,-0.106027 -0.753349,-0.31808c-0.212053,-0.212054 -0.31808,-0.46317 -0.31808,-0.753348c0,-0.290179 0.106027,-0.541295 0.31808,-0.753349c0.212054,-0.212053 0.46317,-0.31808 0.753349,-0.31808h4.28571c0.178571,0 0.337611,0.036272 0.47712,0.108817c0.139509,0.072545 0.251116,0.15904 0.334822,0.259487c0.083705,0.100446 0.15625,0.237165 0.217634,0.410156c0.061384,0.172991 0.103236,0.32087 0.125558,0.443638c0.022321,0.122768 0.053013,0.287389 0.092076,0.493862c0.039062,0.206473 0.064174,0.348772 0.075335,0.426897h20.106c0.290179,0 0.541295,0.106027 0.753348,0.318081c0.212054,0.212053 0.318081,0.463169 0.318081,0.753348Z" transform="scale(3.58974)" fill="#1DBA8F"></path>
</svg>