<?xml version="1.0" encoding="UTF-8"?>
<svg width="100" height="100" version="1.1" viewBox="0 0 100 100" xmlns="http://www.w3.org/2000/svg" xmlns:xlink="http://www.w3.org/1999/xlink">
    <!--Generated by IJSVG (https://github.com/iconjar/IJSVG)-->
    <path d="M20,11h3v2h-3v-2Zm-19,0h3v2h-3v-2Zm11.9923,-10.0014v3h-2v-3h2Zm-8.06751,2.517l2.12132,2.12132l-1.41421,1.41421l-2.12132,-2.12132l1.41421,-1.41421Zm12.0272,2.11683l2.1213,-2.12132l1.4143,1.41421l-2.1214,2.12132l-1.4142,-1.41421Zm-4.952,0.36753c3.3137,0 6,2.68629 6,6c0,2.2208 -1.2066,4.1599 -3,5.1973v1.8027c0,0.5523 -0.4477,1 -1,1h-4.00001c-0.55228,0 -1,-0.4477 -1,-1l1e-05,-1.8027c-1.79341,-1.0374 -3,-2.9765 -3,-5.1973c0,-3.31371 2.68629,-6 6,-6Zm2,15v1c0,0.5523 -0.4477,1 -1,1h-2c-0.5523,0 -1.00001,-0.4477 -1.00001,-1v-1h4.00001Zm-3,-3h2v-2.126c1.7252,-0.4441 3,-2.0102 3,-3.874c0,-2.20914 -1.7909,-4 -4,-4c-2.20914,0 -4,1.79086 -4,4c0,1.8638 1.27477,3.4299 3,3.874v2.126Z" transform="scale(4.16667)" fill="#FFF141"></path>
</svg>