<?xml version="1.0" encoding="UTF-8"?>
<svg width="100" height="100" version="1.1" viewBox="0 0 100 100" xmlns="http://www.w3.org/2000/svg" xmlns:xlink="http://www.w3.org/1999/xlink">
    <!--Generated by IJSVG (https://github.com/iconjar/IJSVG)-->
    <g transform="scale(4.16667)">
        <path fill="none" d="M0,0h24v24h-24Z"></path>
        <path fill="#757575" d="M13.0607,15.4393c0.585786,0.585786 0.585786,1.53553 0,2.12132c-0.585786,0.585786 -1.53553,0.585786 -2.12132,0c-0.585786,-0.585786 -0.585786,-1.53553 0,-2.12132c0.585786,-0.585786 1.53553,-0.585786 2.12132,0"></path>
        <path fill="#757575" d="M17,11v-4c0,-2.757 -2.243,-5 -5,-5c-2.757,0 -5,2.243 -5,5v4c-1.103,0 -2,0.896 -2,2v7c0,1.103 0.897,2 2,2h10c1.103,0 2,-0.897 2,-2v-7c0,-1.104 -0.897,-2 -2,-2Zm-8,-4c0,-1.654 1.346,-3 3,-3c1.654,0 3,1.346 3,3v4h-6v-4Zm-2,13v-7h10l0.001,7h-10.001Z"></path>
    </g>
</svg>