<?xml version="1.0" encoding="UTF-8" ?>
<!DOCTYPE svg PUBLIC "-//W3C//DTD SVG 1.1//EN" "http://www.w3.org/Graphics/SVG/1.1/DTD/svg11.dtd">
<svg width="1724pt" height="456pt" viewBox="0 0 1724 456" version="1.1" xmlns="http://www.w3.org/2000/svg">
<g id="#988f8fff">
<path fill="#988f8f" opacity="1.00" d=" M 260.07 16.00 C 265.56 14.44 271.34 14.88 276.98 14.93 C 283.85 15.39 290.84 16.70 296.92 20.09 C 309.21 26.83 318.66 38.19 323.96 51.09 C 324.52 59.69 324.13 68.36 324.08 76.99 C 324.19 82.83 320.61 87.84 316.90 92.01 C 312.78 96.53 307.48 100.73 301.10 100.96 C 294.03 100.98 286.29 101.99 280.01 97.95 C 271.70 92.91 267.40 83.80 264.19 75.02 L 263.72 74.06 C 258.82 73.93 253.92 73.90 249.03 74.07 L 248.30 75.00 C 245.60 78.98 243.26 84.40 237.99 85.37 C 234.02 84.36 231.67 80.40 229.82 77.02 C 228.45 74.33 226.82 70.09 230.26 68.22 C 236.02 66.11 242.77 66.47 248.18 69.46 L 248.39 69.87 C 248.64 70.37 249.16 71.36 249.42 71.85 C 254.26 72.27 259.13 72.03 263.99 71.94 C 263.93 67.33 263.88 62.71 263.99 58.10 L 262.99 58.02 C 249.64 56.63 236.08 57.39 222.85 55.03 C 221.77 50.23 224.41 45.73 226.73 41.75 C 234.32 29.65 246.03 19.55 260.07 16.00 Z" />
<path fill="#988f8f" opacity="1.00" d=" M 371.93 105.02 C 401.59 103.57 431.29 104.11 460.98 103.97 C 478.64 103.93 496.31 103.94 513.98 103.78 C 515.87 105.70 517.76 107.62 519.69 109.52 C 519.13 134.36 518.98 159.21 518.99 184.05 C 518.56 202.04 518.17 220.03 517.93 238.02 C 517.34 243.02 517.61 248.23 515.76 252.99 C 511.55 253.82 507.25 254.07 502.97 254.05 C 491.65 254.07 480.36 255.26 469.04 255.02 C 461.67 254.88 454.34 255.61 447.00 256.01 C 441.73 255.15 436.40 254.84 431.07 255.25 C 432.84 256.36 434.79 257.23 436.33 258.67 C 437.71 260.85 437.98 263.51 438.05 266.03 C 438.23 274.69 438.24 283.36 437.99 292.03 C 438.03 295.00 436.17 297.46 435.10 300.10 C 435.30 301.65 436.08 303.06 436.63 304.51 C 445.84 324.93 452.73 346.38 457.65 368.23 C 459.15 378.30 462.30 388.61 459.80 398.80 C 457.76 403.60 454.14 407.89 449.57 410.47 C 444.90 412.12 439.86 412.03 434.98 412.10 C 427.73 412.18 420.53 413.33 413.27 412.99 C 409.83 419.21 406.37 425.47 401.92 431.04 C 392.74 441.72 378.91 447.95 364.91 448.51 C 352.82 448.93 340.39 445.81 330.46 438.75 C 323.28 433.11 316.94 426.06 313.17 417.68 C 312.11 415.92 311.76 412.52 309.00 412.99 C 257.67 412.84 206.34 413.00 155.01 412.07 C 148.74 412.06 142.46 412.08 136.23 411.26 C 134.01 411.04 131.53 411.27 129.82 409.53 C 128.37 407.79 126.13 409.43 126.80 411.43 L 126.80 412.74 C 122.54 426.29 113.38 439.45 99.61 444.54 C 89.71 448.64 78.67 449.38 68.18 447.60 C 55.78 444.80 44.85 436.68 37.71 426.29 C 28.42 412.15 28.23 393.32 35.16 378.16 C 36.01 375.88 37.78 373.84 37.99 371.39 C 35.03 369.38 31.53 368.30 28.68 366.10 C 28.78 365.41 28.99 364.04 29.10 363.35 C 33.27 354.33 39.05 346.02 46.01 338.92 C 57.26 328.91 72.37 324.14 87.19 323.01 L 88.09 323.28 C 89.81 323.94 92.58 325.41 93.80 323.26 C 104.61 299.95 115.49 276.67 126.23 253.33 C 128.00 249.73 129.58 246.04 131.25 242.39 C 131.50 241.87 132.00 240.82 132.25 240.30 C 133.96 236.65 135.56 232.95 137.24 229.29 C 138.75 226.60 139.45 223.48 141.30 220.98 C 141.53 220.63 141.98 219.94 142.20 219.60 C 141.36 217.68 139.06 219.96 138.06 220.73 C 134.00 222.72 129.43 223.70 124.96 224.31 C 124.54 221.55 124.28 218.76 124.36 215.97 C 124.58 197.94 124.20 179.91 124.54 161.88 C 125.44 161.86 127.25 161.82 128.15 161.80 C 141.15 163.66 152.78 174.49 155.05 187.51 C 155.09 188.31 155.17 189.93 155.21 190.73 C 156.52 188.99 157.54 187.04 158.09 184.92 C 160.67 178.58 163.72 172.28 168.07 166.95 C 171.38 162.89 177.00 160.17 182.22 161.74 C 184.37 162.29 186.56 162.73 188.68 163.43 C 196.43 166.63 200.91 175.86 199.04 183.97 C 198.41 186.49 198.48 189.42 196.78 191.53 C 194.85 192.53 196.51 194.87 197.86 192.94 C 198.76 192.99 200.57 193.10 201.48 193.16 C 203.16 193.55 205.36 193.11 205.80 191.17 L 206.17 190.27 C 215.94 185.74 224.36 178.83 233.82 173.77 C 248.30 163.85 261.86 152.65 274.70 140.72 C 281.53 133.88 288.50 127.17 295.67 120.68 C 298.38 118.29 301.07 115.70 304.41 114.22 C 311.64 112.53 319.11 113.37 326.43 113.81 C 332.25 113.97 337.40 117.05 342.44 119.66 C 351.10 124.34 357.62 131.88 364.96 138.25 C 365.77 128.85 365.60 119.36 367.01 110.02 C 367.17 107.40 369.14 104.94 371.93 105.02 M 452.16 156.03 C 446.24 162.83 439.97 169.38 434.69 176.69 C 437.58 177.83 440.53 178.82 443.35 180.14 C 438.96 189.45 431.91 197.17 427.17 206.27 C 428.56 205.37 429.89 204.38 431.11 203.24 C 438.82 195.92 446.65 188.71 454.19 181.20 C 456.31 179.06 458.63 177.07 460.32 174.53 C 456.32 173.16 452.06 172.78 448.13 171.21 C 451.83 163.33 456.70 156.06 460.09 148.04 C 456.99 150.23 454.68 153.25 452.16 156.03 M 280.44 174.48 C 257.99 182.34 237.37 194.60 217.51 207.52 C 212.17 210.24 211.11 217.67 204.86 219.03 C 199.38 221.29 193.49 218.91 188.99 215.65 C 177.48 246.75 166.78 278.15 155.52 309.34 C 154.37 311.73 155.65 314.25 156.34 316.56 C 158.88 324.52 164.79 330.79 170.99 336.12 C 183.61 346.54 198.75 353.37 214.11 358.67 C 216.72 359.47 219.33 360.64 222.12 360.47 C 220.57 355.06 219.87 349.45 218.90 343.91 C 215.94 325.76 213.39 307.51 212.70 289.12 C 211.72 280.10 211.83 271.01 212.02 261.96 C 213.62 253.86 220.68 248.42 227.52 244.63 C 249.69 232.63 275.47 229.65 297.71 217.79 C 302.86 214.89 308.39 210.98 309.79 204.87 C 310.88 194.78 308.32 183.99 301.96 175.98 C 296.43 169.71 287.30 172.31 280.44 174.48 M 266.70 286.65 C 262.10 292.73 261.65 300.72 262.04 308.05 C 263.14 324.13 264.96 340.16 266.14 356.23 C 266.76 354.83 267.36 353.41 267.73 351.92 C 271.78 335.25 276.23 318.67 279.74 301.87 C 277.25 300.69 274.27 299.62 273.12 296.88 C 271.27 292.95 272.70 288.39 271.46 284.40 C 269.56 282.97 267.89 285.43 266.70 286.65 Z" />
</g>
<g id="#d7cdcdff">
<path fill="#d7cdcd" opacity="1.00" d=" M 937.32 20.20 C 943.83 21.08 949.61 25.48 953.27 30.81 C 956.39 35.56 953.74 41.23 952.30 46.08 C 949.49 57.59 942.66 67.50 938.26 78.39 C 937.51 79.82 938.17 81.91 940.04 81.90 C 946.37 82.07 952.72 82.36 959.03 83.00 C 963.87 83.44 966.73 89.06 965.66 93.49 C 964.76 97.59 962.97 102.43 958.49 103.72 C 949.71 106.75 940.52 108.38 931.51 110.53 C 929.31 111.04 927.46 112.62 926.91 114.84 C 917.35 141.59 909.94 169.09 899.41 195.49 C 895.75 201.36 894.06 209.23 887.66 212.84 C 881.62 215.20 875.35 211.67 870.03 209.01 C 865.62 206.82 865.79 201.13 866.36 196.96 C 867.19 191.95 866.58 186.81 867.72 181.84 C 870.30 163.93 874.59 146.34 878.64 128.73 C 879.23 125.83 880.15 122.97 880.04 119.98 C 874.75 119.85 869.54 122.01 864.26 120.74 C 859.35 118.86 857.18 112.80 857.90 107.91 C 858.16 104.25 861.41 101.93 864.41 100.40 C 873.84 95.67 883.94 92.51 893.88 89.03 C 896.40 88.36 896.72 85.49 897.26 83.36 C 899.97 73.60 902.58 63.81 905.03 53.98 C 907.55 45.74 912.21 38.33 917.72 31.76 C 922.58 25.69 930.04 22.35 937.32 20.20 Z" />
<path fill="#d7cdcd" opacity="1.00" d=" M 711.59 37.70 C 720.54 33.77 730.87 31.58 740.44 34.47 C 744.50 36.00 748.89 39.13 748.95 43.92 C 749.20 53.32 745.50 62.17 741.79 70.62 C 726.81 103.64 710.10 135.84 694.76 168.68 C 694.33 169.75 694.01 170.86 693.80 171.99 C 704.03 172.10 713.88 168.32 724.11 168.07 C 729.30 168.24 732.63 172.68 735.30 176.59 C 737.70 180.38 740.31 184.36 740.91 188.90 C 739.90 195.34 735.37 200.73 730.00 204.15 C 726.49 206.52 722.09 206.35 718.07 206.91 C 700.72 207.31 683.32 208.38 665.98 206.98 C 662.20 206.59 658.27 205.09 656.20 201.72 C 652.52 195.82 650.16 189.17 648.33 182.49 C 647.40 179.38 648.04 176.13 649.01 173.13 C 653.97 156.03 659.69 139.16 665.68 122.41 C 668.96 112.98 673.17 103.90 676.53 94.52 C 684.71 78.38 691.79 61.65 700.85 45.96 C 703.01 41.74 707.47 39.58 711.59 37.70 Z" />
<path fill="#d7cdcd" opacity="1.00" d=" M 249.03 74.07 C 253.92 73.90 258.82 73.93 263.72 74.06 L 264.19 75.02 C 258.89 74.98 253.60 75.02 248.30 75.00 L 249.03 74.07 Z" />
<path fill="#d7cdcd" opacity="1.00" d=" M 1140.33 89.19 C 1143.89 87.25 1148.11 87.34 1152.05 87.43 C 1156.46 87.84 1161.20 87.51 1165.16 89.85 C 1172.10 93.85 1177.93 100.67 1178.80 108.87 C 1179.31 115.55 1179.09 122.27 1179.06 128.98 C 1179.26 137.77 1177.57 146.45 1175.91 155.04 C 1173.67 165.96 1171.22 176.88 1167.67 187.47 C 1166.19 191.50 1164.88 195.79 1161.84 198.96 C 1158.76 199.74 1155.60 200.17 1152.43 200.05 C 1150.36 205.00 1144.63 206.11 1139.91 206.87 C 1133.09 206.78 1125.63 204.27 1121.66 198.39 C 1118.61 194.27 1119.98 188.83 1121.25 184.31 C 1126.59 165.58 1133.31 147.27 1139.12 128.69 C 1136.75 130.25 1135.61 132.87 1134.16 135.18 C 1128.11 145.17 1122.58 155.47 1116.75 165.59 C 1113.63 170.70 1110.59 176.18 1105.62 179.73 C 1100.69 182.63 1094.28 183.81 1089.03 181.05 C 1085.58 179.64 1082.57 176.76 1082.02 172.95 C 1080.60 165.98 1081.19 158.87 1080.85 151.82 C 1079.69 151.93 1078.82 152.46 1078.25 153.44 C 1076.43 156.37 1074.95 159.50 1073.28 162.52 C 1069.51 169.98 1065.62 177.40 1062.23 185.05 C 1059.18 192.92 1055.79 201.46 1048.48 206.34 C 1042.35 210.94 1034.29 210.95 1026.97 210.78 C 1021.88 210.09 1015.98 210.69 1011.93 206.93 C 1011.37 199.93 1013.96 193.27 1015.67 186.60 C 1023.05 162.04 1029.62 137.22 1037.80 112.91 C 1039.31 109.08 1040.67 104.57 1044.57 102.51 C 1047.55 101.00 1049.58 98.20 1052.56 96.69 C 1057.19 93.91 1062.86 94.95 1067.99 95.14 C 1073.98 95.88 1078.10 100.62 1081.43 105.21 C 1087.43 101.11 1093.42 96.74 1100.39 94.41 C 1108.49 92.80 1117.01 94.63 1123.94 99.11 C 1129.25 95.57 1134.65 92.11 1140.33 89.19 Z" />
<path fill="#d7cdcd" opacity="1.00" d=" M 1246.06 92.90 C 1251.19 91.16 1256.73 91.78 1262.04 91.99 C 1271.12 92.50 1279.51 98.87 1282.59 107.39 C 1283.85 112.52 1284.45 117.88 1283.52 123.13 C 1282.40 134.66 1279.42 146.66 1271.56 155.52 C 1264.23 161.60 1255.63 166.13 1246.40 168.49 C 1238.29 170.99 1229.60 171.29 1221.69 174.41 C 1223.48 177.03 1226.84 178.69 1229.96 178.92 C 1238.66 177.10 1246.95 172.86 1255.99 172.90 C 1260.27 172.56 1263.47 175.98 1266.30 178.70 C 1269.54 182.10 1274.08 185.04 1274.95 190.00 C 1274.38 194.56 1270.30 197.58 1266.60 199.72 C 1256.62 205.01 1245.26 206.86 1234.15 207.96 C 1222.38 208.09 1209.87 209.40 1199.00 203.89 C 1190.12 199.93 1183.73 191.37 1182.21 181.80 C 1181.26 172.92 1181.73 163.84 1184.17 155.21 C 1188.36 140.25 1196.15 126.10 1207.17 115.09 C 1210.15 111.75 1212.87 108.12 1216.34 105.24 C 1221.17 101.42 1226.60 98.29 1232.45 96.32 C 1237.02 95.33 1241.58 94.27 1246.06 92.90 M 1232.44 135.45 C 1228.60 140.71 1224.98 146.54 1223.90 153.06 C 1229.42 153.10 1234.28 149.84 1238.09 146.12 C 1242.05 142.15 1245.51 136.92 1245.02 131.06 C 1240.45 130.50 1235.32 131.57 1232.44 135.45 Z" />
<path fill="#d7cdcd" opacity="1.00" d=" M 815.17 93.17 C 824.31 93.05 834.97 91.02 842.57 97.48 C 845.79 100.54 849.66 103.32 851.30 107.63 C 853.54 114.38 852.56 121.57 851.60 128.45 C 849.68 138.13 846.91 148.44 839.42 155.39 C 828.85 165.43 814.22 169.64 800.15 171.89 C 796.97 172.48 793.02 172.11 790.62 174.61 C 791.54 177.12 794.35 178.16 796.84 178.08 C 806.02 179.00 813.99 172.75 823.11 172.90 C 827.93 172.32 831.83 175.86 835.17 178.83 C 837.47 182.27 842.28 184.40 842.27 189.05 C 842.44 194.17 837.55 197.39 833.59 199.59 C 821.36 205.61 807.51 207.32 794.03 207.63 C 784.32 207.34 773.93 206.94 765.45 201.64 C 758.74 196.78 752.38 189.79 752.01 181.07 C 751.66 171.71 751.47 162.13 754.11 153.04 C 757.28 142.80 762.37 133.22 768.50 124.45 C 771.16 120.82 773.06 116.56 776.58 113.61 C 780.68 110.74 783.63 106.51 787.87 103.77 C 796.02 98.28 805.58 95.07 815.17 93.17 M 797.39 139.45 C 795.20 143.66 792.45 148.15 792.97 153.08 C 797.62 153.50 802.03 151.47 805.30 148.27 C 810.25 143.64 815.12 137.36 813.91 130.15 C 806.92 128.76 800.53 133.54 797.39 139.45 Z" />
<path fill="#d7cdcd" opacity="1.00" d=" M 124.04 160.82 C 125.42 161.11 126.79 161.43 128.15 161.80 C 127.25 161.82 125.44 161.86 124.54 161.88 C 124.20 179.91 124.58 197.94 124.36 215.97 C 124.28 218.76 124.54 221.55 124.96 224.31 L 125.11 225.38 C 123.50 224.52 124.28 222.43 124.01 220.99 C 124.03 200.94 123.98 180.88 124.04 160.82 Z" />
<path fill="#d7cdcd" opacity="1.00" d=" M 155.05 187.51 C 156.44 187.13 157.27 186.01 158.09 184.92 C 157.54 187.04 156.52 188.99 155.21 190.73 C 155.17 189.93 155.09 188.31 155.05 187.51 Z" />
<path fill="#d7cdcd" opacity="1.00" d=" M 201.48 193.16 C 201.64 191.59 204.43 190.85 205.80 191.17 C 205.36 193.11 203.16 193.55 201.48 193.16 Z" />
<path fill="#d7cdcd" opacity="1.00" d=" M 1392.87 357.63 C 1393.97 356.40 1395.71 356.74 1396.95 357.62 C 1395.56 358.54 1394.20 358.55 1392.87 357.63 Z" />
<path fill="#d7cdcd" opacity="1.00" d=" M 1184.33 359.06 C 1185.79 361.19 1185.59 363.73 1184.27 365.87 C 1183.67 363.75 1183.57 361.13 1184.33 359.06 Z" />
<path fill="#d7cdcd" opacity="1.00" d=" M 1032.26 360.85 C 1033.99 362.57 1033.21 365.00 1032.29 366.91 C 1031.60 365.05 1031.62 362.71 1032.26 360.85 Z" />
<path fill="#d7cdcd" opacity="1.00" d=" M 1385.68 373.14 C 1384.17 371.72 1384.79 369.62 1385.61 368.03 C 1386.41 369.50 1386.47 371.65 1385.68 373.14 Z" />
<path fill="#d7cdcd" opacity="1.00" d=" M 1143.20 375.45 C 1143.25 375.39 1143.34 375.26 1143.38 375.19 C 1143.34 375.26 1143.25 375.39 1143.20 375.45 Z" />
<path fill="#d7cdcd" opacity="1.00" d=" M 1194.73 385.61 C 1193.43 382.84 1193.82 379.87 1194.83 377.09 C 1195.05 379.37 1195.01 381.67 1195.01 383.97 C 1195.72 383.98 1197.15 384.02 1197.86 384.03 C 1197.08 384.43 1195.51 385.22 1194.73 385.61 Z" />
<path fill="#d7cdcd" opacity="1.00" d=" M 846.45 384.25 L 846.61 384.30 C 846.58 384.30 846.53 384.31 846.50 384.31 L 846.45 384.25 Z" />
<path fill="#d7cdcd" opacity="1.00" d=" M 1140.30 387.98 C 1141.53 391.13 1141.18 394.49 1140.06 397.61 C 1139.89 394.40 1139.82 391.17 1140.30 387.98 Z" />
<path fill="#d7cdcd" opacity="1.00" d=" M 1568.19 386.99 C 1569.48 390.21 1569.60 393.76 1568.08 396.93 C 1567.95 393.62 1567.83 390.29 1568.19 386.99 Z" />
<path fill="#d7cdcd" opacity="1.00" d=" M 1678.43 388.83 C 1679.39 390.43 1679.51 392.42 1678.33 393.96 C 1677.52 392.46 1677.43 390.25 1678.43 388.83 Z" />
<path fill="#d7cdcd" opacity="1.00" d=" M 1368.27 389.97 C 1369.76 391.70 1369.64 394.21 1368.12 395.89 C 1367.77 393.99 1367.58 391.79 1368.27 389.97 Z" />
<path fill="#d7cdcd" opacity="1.00" d=" M 888.28 392.58 C 890.96 396.15 890.44 400.80 889.22 404.82 C 888.73 400.75 889.36 396.58 888.28 392.58 Z" />
<path fill="#d7cdcd" opacity="1.00" d=" M 1309.99 413.57 C 1307.95 410.25 1308.47 405.85 1309.94 402.40 C 1310.06 406.12 1310.00 409.85 1309.99 413.57 Z" />
<path fill="#d7cdcd" opacity="1.00" d=" M 777.97 413.41 C 775.87 410.34 776.93 406.51 777.88 403.24 C 778.07 406.62 778.03 410.02 777.97 413.41 Z" />
<path fill="#d7cdcd" opacity="1.00" d=" M 928.97 406.77 C 928.93 405.23 930.66 404.74 931.91 404.96 L 932.07 405.45 C 931.27 406.58 930.23 407.02 928.97 406.77 Z" />
<path fill="#d7cdcd" opacity="1.00" d=" M 1221.00 417.54 C 1218.83 413.37 1219.61 408.39 1220.92 404.08 C 1221.16 408.56 1220.95 413.05 1221.00 417.54 Z" />
<path fill="#d7cdcd" opacity="1.00" d=" M 724.54 406.58 L 724.89 406.44 C 724.76 406.56 724.51 406.79 724.38 406.90 L 724.54 406.58 Z" />
<path fill="#d7cdcd" opacity="1.00" d=" M 900.62 412.10 C 899.30 410.61 899.66 408.60 900.62 407.05 C 901.47 408.48 901.48 410.66 900.62 412.10 Z" />
<path fill="#d7cdcd" opacity="1.00" d=" M 1657.67 412.08 C 1656.22 410.64 1656.69 408.59 1657.64 407.04 C 1658.41 408.49 1658.47 410.62 1657.67 412.08 Z" />
<path fill="#d7cdcd" opacity="1.00" d=" M 126.80 411.43 C 126.13 409.43 128.37 407.79 129.82 409.53 C 128.96 410.21 127.97 411.54 126.80 411.43 Z" />
<path fill="#d7cdcd" opacity="1.00" d=" M 1036.66 414.04 C 1035.15 412.74 1035.59 410.47 1036.74 409.10 C 1037.31 410.60 1037.45 412.59 1036.66 414.04 Z" />
<path fill="#d7cdcd" opacity="1.00" d=" M 1556.04 409.09 C 1557.36 409.24 1558.22 410.84 1559.55 411.32 C 1558.07 413.61 1555.41 411.21 1556.04 409.09 Z" />
<path fill="#d7cdcd" opacity="1.00" d=" M 1659.45 415.12 C 1659.56 415.23 1659.79 415.46 1659.91 415.58 L 1659.61 415.43 L 1659.45 415.12 Z" />
<path fill="#d7cdcd" opacity="1.00" d=" M 1673.30 416.02 C 1674.93 414.80 1675.48 417.28 1673.81 417.69 C 1673.34 417.71 1672.40 417.75 1671.92 417.77 C 1672.27 417.33 1672.95 416.46 1673.30 416.02 Z" />
<path fill="#d7cdcd" opacity="1.00" d=" M 727.60 417.05 C 730.94 417.07 734.29 416.99 737.64 417.00 C 734.46 418.31 730.72 418.74 727.60 417.05 Z" />
<path fill="#d7cdcd" opacity="1.00" d=" M 671.85 417.96 C 675.11 418.01 678.38 417.88 681.64 418.18 C 678.43 418.98 674.85 419.89 671.85 417.96 Z" />
<path fill="#d7cdcd" opacity="1.00" d=" M 1261.00 418.79 C 1261.80 417.48 1262.39 417.53 1262.75 418.96 C 1262.32 418.92 1261.44 418.83 1261.00 418.79 Z" />
</g>
<g id="#b8b8b8ff">
<path fill="#b8b8b8" opacity="1.00" d=" M 262.99 58.02 L 263.99 58.10 C 263.88 62.71 263.93 67.33 263.99 71.94 C 259.13 72.03 254.26 72.27 249.42 71.85 C 249.16 71.36 248.64 70.37 248.39 69.87 C 252.94 72.03 258.14 70.58 263.00 71.00 C 263.00 66.67 263.02 62.35 262.99 58.02 Z" />
<path fill="#b8b8b8" opacity="1.00" d=" M 197.86 192.94 C 196.51 194.87 194.85 192.53 196.78 191.53 C 197.05 191.88 197.59 192.59 197.86 192.94 Z" />
<path fill="#b8b8b8" opacity="1.00" d=" M 138.06 220.73 C 139.06 219.96 141.36 217.68 142.20 219.60 C 141.98 219.94 141.53 220.63 141.30 220.98 C 140.49 220.92 138.87 220.79 138.06 220.73 Z" />
<path fill="#b8b8b8" opacity="1.00" d=" M 88.09 323.28 C 89.85 322.69 92.08 322.53 93.80 323.26 C 92.58 325.41 89.81 323.94 88.09 323.28 Z" />
<path fill="#b8b8b8" opacity="1.00" d=" M 1383.14 355.16 C 1387.91 350.70 1394.66 349.49 1400.95 349.06 C 1403.31 349.21 1407.49 349.72 1407.18 352.96 C 1407.06 357.96 1400.59 358.71 1396.95 357.62 C 1395.71 356.74 1393.97 356.40 1392.87 357.63 C 1388.67 359.56 1386.48 363.68 1385.61 368.03 C 1384.79 369.62 1384.17 371.72 1385.68 373.14 C 1387.44 377.31 1391.99 377.93 1395.24 380.41 C 1392.26 385.27 1385.33 385.58 1382.68 390.60 C 1378.65 405.29 1377.14 420.54 1373.15 435.23 C 1371.64 439.80 1366.59 441.66 1362.26 442.34 C 1358.82 443.08 1354.89 442.06 1352.82 439.08 C 1355.07 434.16 1359.28 430.59 1362.07 426.02 C 1365.10 419.53 1365.71 412.33 1367.30 405.43 C 1368.37 402.36 1367.85 399.07 1368.12 395.89 C 1369.64 394.21 1369.76 391.70 1368.27 389.97 C 1366.58 387.65 1366.88 384.65 1366.06 382.02 C 1365.44 380.11 1367.08 378.53 1368.28 377.29 C 1374.82 371.03 1376.42 361.27 1383.14 355.16 Z" />
<path fill="#b8b8b8" opacity="1.00" d=" M 1028.95 353.92 C 1031.53 350.67 1036.08 349.86 1040.00 349.67 C 1042.39 349.40 1044.02 351.81 1044.07 353.97 C 1044.65 360.75 1043.53 367.51 1042.31 374.16 C 1041.27 385.91 1038.70 397.48 1036.74 409.10 C 1035.59 410.47 1035.15 412.74 1036.66 414.04 C 1038.35 416.74 1042.91 417.46 1043.12 420.95 C 1039.64 424.90 1034.00 426.79 1028.92 425.16 C 1025.53 425.19 1023.45 422.46 1021.86 419.86 C 1015.54 423.07 1008.33 427.82 1001.02 425.05 C 996.22 423.58 993.57 418.71 992.94 414.01 C 991.92 406.64 992.84 398.60 997.35 392.46 C 999.89 389.32 1001.86 385.57 1005.41 383.40 C 1012.43 378.55 1021.68 380.04 1029.08 376.07 C 1031.92 373.95 1031.81 370.06 1032.29 366.91 C 1033.21 365.00 1033.99 362.57 1032.26 360.85 C 1030.69 358.79 1030.00 356.25 1028.95 353.92 M 1017.45 383.62 C 1009.25 386.05 1004.81 394.91 1004.06 402.91 C 1004.15 407.20 1002.96 412.33 1006.22 415.79 C 1008.71 418.93 1013.54 418.51 1016.61 416.47 C 1022.47 412.67 1026.06 405.97 1026.85 399.11 C 1027.31 394.54 1028.43 389.73 1026.79 385.28 C 1024.46 382.79 1020.52 382.84 1017.45 383.62 Z" />
<path fill="#b8b8b8" opacity="1.00" d=" M 1184.91 350.95 C 1188.29 350.03 1192.07 349.54 1195.48 350.63 C 1197.82 351.20 1196.86 354.22 1197.08 356.00 C 1196.42 363.04 1195.57 370.06 1194.83 377.09 C 1193.82 379.87 1193.43 382.84 1194.73 385.61 C 1195.51 385.22 1197.08 384.43 1197.86 384.03 C 1203.84 381.59 1209.74 376.77 1216.59 379.09 C 1218.18 380.29 1219.71 381.61 1221.06 383.10 C 1221.17 390.09 1221.57 397.13 1220.92 404.08 C 1219.61 408.39 1218.83 413.37 1221.00 417.54 C 1221.47 418.59 1221.92 419.63 1222.40 420.71 C 1218.17 423.26 1212.81 424.89 1208.06 422.85 C 1206.87 414.58 1208.29 406.24 1209.02 398.02 C 1209.46 394.31 1208.32 390.57 1205.59 387.98 C 1202.38 387.80 1198.78 387.78 1196.72 390.71 C 1189.64 399.42 1190.49 411.48 1186.63 421.54 C 1184.74 426.69 1178.24 426.23 1174.01 424.69 C 1172.78 421.40 1174.11 418.03 1174.71 414.76 C 1177.03 403.20 1180.01 391.77 1182.10 380.15 C 1182.28 379.72 1182.64 378.87 1182.81 378.44 C 1183.60 374.28 1183.81 370.05 1184.27 365.87 C 1185.59 363.73 1185.79 361.19 1184.33 359.06 C 1183.76 356.55 1183.32 353.12 1184.91 350.95 Z" />
<path fill="#b8b8b8" opacity="1.00" d=" M 658.73 356.05 C 666.83 355.01 675.15 354.43 683.22 356.04 C 681.10 360.20 677.56 363.50 675.95 367.94 C 673.11 375.55 673.17 383.76 671.40 391.61 C 670.27 399.10 668.70 406.55 667.96 414.08 C 667.47 416.45 670.31 417.00 671.85 417.96 C 674.85 419.89 678.43 418.98 681.64 418.18 C 690.28 416.93 695.22 408.85 702.55 405.04 C 703.25 410.71 701.14 416.21 699.76 421.63 C 697.30 426.15 691.31 425.19 687.01 425.84 C 673.56 425.96 660.03 426.59 646.64 425.02 C 646.52 423.59 646.75 422.01 648.17 421.31 C 651.03 419.36 652.69 416.22 654.85 413.60 C 656.04 409.83 656.84 405.97 657.16 402.03 C 658.94 396.49 659.74 390.69 660.11 384.89 C 661.31 378.44 663.22 372.14 663.83 365.58 C 662.25 362.33 659.63 359.61 658.73 356.05 Z" />
<path fill="#b8b8b8" opacity="1.00" d=" M 770.76 374.82 C 773.39 371.87 773.92 367.63 776.84 364.90 C 779.61 365.20 782.54 365.40 784.81 367.24 C 785.22 369.98 785.99 372.95 788.32 374.72 C 790.08 376.13 791.72 377.69 793.08 379.51 C 790.57 382.60 786.70 384.15 784.30 387.33 C 780.57 391.87 779.20 397.67 777.88 403.24 C 776.93 406.51 775.87 410.34 777.97 413.41 C 778.72 414.30 779.58 415.10 780.43 415.94 C 783.69 415.97 786.92 416.51 790.14 417.05 C 791.00 421.97 785.44 423.44 781.93 424.86 C 777.39 426.29 771.33 427.41 767.61 423.66 C 765.27 421.39 765.97 417.90 765.81 414.98 C 766.06 409.36 765.48 403.65 766.74 398.13 C 767.18 393.09 767.38 387.92 765.85 383.05 C 766.17 379.76 769.09 377.51 770.76 374.82 Z" />
<path fill="#b8b8b8" opacity="1.00" d=" M 1143.38 375.19 C 1146.09 370.77 1149.55 366.70 1154.15 364.17 C 1156.26 366.50 1157.71 369.29 1159.19 372.03 C 1160.68 375.20 1164.25 376.51 1166.06 379.45 C 1163.31 382.94 1159.18 385.05 1156.79 388.84 C 1151.84 395.88 1150.34 404.61 1150.98 413.05 C 1153.36 417.57 1159.24 415.81 1163.34 417.14 C 1163.29 420.86 1159.55 423.09 1156.59 424.56 C 1150.92 426.93 1142.71 427.74 1138.95 421.79 C 1138.95 413.72 1139.19 405.62 1140.06 397.61 C 1141.18 394.49 1141.53 391.13 1140.30 387.98 C 1139.83 385.71 1139.55 383.35 1139.81 381.04 C 1140.36 378.88 1142.05 377.29 1143.20 375.45 C 1143.25 375.39 1143.34 375.26 1143.38 375.19 Z" />
<path fill="#b8b8b8" opacity="1.00" d=" M 1303.83 372.89 C 1306.04 369.93 1307.83 365.61 1312.07 365.33 C 1314.28 364.62 1315.57 366.89 1316.27 368.61 C 1317.97 372.80 1320.84 376.35 1323.72 379.79 C 1321.05 382.39 1317.34 384.10 1315.71 387.61 C 1312.48 391.98 1311.53 397.37 1309.94 402.40 C 1308.47 405.85 1307.95 410.25 1309.99 413.57 C 1310.71 414.42 1311.52 415.19 1312.34 416.00 C 1315.51 416.12 1318.89 415.47 1321.88 416.89 C 1321.61 418.19 1321.36 419.51 1321.15 420.82 C 1316.04 424.63 1309.47 426.85 1303.09 425.86 C 1299.74 425.19 1297.99 421.85 1297.21 418.83 C 1295.76 408.44 1299.74 398.28 1298.94 387.90 C 1298.64 385.60 1296.75 383.95 1295.91 381.87 C 1298.59 378.94 1301.70 376.32 1303.83 372.89 Z" />
<path fill="#b8b8b8" opacity="1.00" d=" M 1077.41 376.67 C 1080.20 375.56 1083.20 376.64 1086.04 377.02 C 1093.98 378.41 1099.55 386.19 1100.05 393.96 C 1101.36 409.49 1089.00 425.50 1073.09 426.50 C 1064.46 427.96 1055.57 422.25 1053.06 413.91 C 1048.95 400.91 1055.89 386.11 1067.54 379.58 C 1070.77 378.45 1074.19 377.89 1077.41 376.67 M 1076.36 382.58 C 1067.35 386.16 1063.67 396.98 1063.97 405.99 C 1063.73 411.04 1064.70 417.67 1070.16 419.64 C 1072.90 420.18 1076.23 420.61 1078.55 418.64 C 1085.01 413.54 1088.31 405.07 1088.09 396.95 C 1088.23 392.62 1087.44 387.90 1084.30 384.69 C 1082.24 382.75 1079.13 381.21 1076.36 382.58 Z" />
<path fill="#b8b8b8" opacity="1.00" d=" M 929.51 381.58 C 933.58 376.98 940.48 376.09 946.14 377.82 C 949.95 378.99 954.93 378.96 957.21 382.80 C 959.59 387.06 960.26 393.71 955.70 396.79 C 949.14 401.16 941.23 402.46 933.86 404.83 C 933.37 404.86 932.40 404.93 931.91 404.96 C 930.66 404.74 928.93 405.23 928.97 406.77 L 928.84 407.52 C 927.62 408.66 927.71 410.47 928.14 411.94 C 929.79 415.68 933.92 417.82 937.97 417.14 C 943.19 417.55 947.93 414.58 953.15 415.07 C 953.34 418.19 951.16 420.96 948.46 422.29 C 941.74 426.00 933.42 427.88 926.03 425.12 C 921.55 423.37 917.42 419.91 916.19 415.10 C 913.92 406.83 914.80 397.17 920.23 390.29 C 923.08 387.14 926.48 384.55 929.51 381.58 M 933.52 386.43 C 930.56 389.87 927.22 393.97 928.08 398.85 C 935.06 399.87 942.33 397.01 947.31 392.17 C 950.46 389.36 948.06 383.72 944.17 383.19 C 940.38 382.59 936.11 383.40 933.52 386.43 Z" />
<path fill="#b8b8b8" opacity="1.00" d=" M 1424.43 377.54 C 1428.62 376.46 1432.89 377.75 1437.10 378.14 C 1442.65 378.81 1446.50 383.92 1447.87 389.02 C 1450.83 399.69 1446.60 411.32 1439.06 419.09 C 1433.88 424.98 1425.58 426.49 1418.12 426.43 C 1408.33 426.71 1401.02 417.03 1400.62 407.93 C 1400.45 398.19 1404.68 388.32 1412.40 382.27 C 1415.80 379.46 1420.26 378.58 1424.43 377.54 M 1425.37 382.57 C 1420.36 384.07 1417.16 388.70 1415.19 393.27 C 1413.43 397.64 1412.14 402.33 1412.24 407.07 C 1412.60 411.75 1414.05 417.10 1418.46 419.55 C 1422.33 420.97 1426.73 419.48 1429.62 416.68 C 1434.08 412.37 1436.10 406.16 1436.83 400.14 C 1437.20 395.25 1437.27 389.86 1434.35 385.66 C 1432.43 382.82 1428.62 381.39 1425.37 382.57 Z" />
<path fill="#b8b8b8" opacity="1.00" d=" M 1571.56 378.60 C 1574.43 377.57 1577.74 376.69 1580.64 378.16 C 1581.94 380.09 1582.60 382.43 1581.83 384.72 C 1579.23 392.69 1575.14 400.05 1571.30 407.47 C 1565.93 417.23 1560.93 427.25 1554.25 436.19 C 1550.44 440.32 1546.71 444.66 1542.03 447.83 C 1538.86 449.96 1534.95 449.79 1531.41 448.91 C 1530.55 448.22 1529.69 447.54 1528.85 446.88 C 1528.66 443.38 1531.93 441.00 1534.99 440.22 C 1541.42 438.55 1547.72 433.83 1548.84 426.94 C 1546.33 415.35 1542.78 403.95 1539.79 392.47 C 1539.53 391.96 1539.01 390.95 1538.75 390.45 C 1537.14 387.70 1534.31 385.30 1533.84 382.13 C 1536.84 379.91 1540.70 379.35 1544.11 377.93 C 1546.23 376.94 1549.30 377.58 1550.27 379.91 C 1552.18 384.71 1551.82 389.99 1552.99 394.96 C 1553.48 399.78 1555.37 404.33 1556.04 409.09 C 1555.41 411.21 1558.07 413.61 1559.55 411.32 C 1563.64 407.37 1566.43 402.34 1568.08 396.93 C 1569.60 393.76 1569.48 390.21 1568.19 386.99 C 1568.35 384.05 1568.48 380.06 1571.56 378.60 Z" />
<path fill="#b8b8b8" opacity="1.00" d=" M 1607.41 377.41 C 1613.51 376.35 1620.35 376.08 1626.03 378.95 C 1630.17 382.01 1634.23 386.54 1634.14 392.01 C 1634.17 396.96 1634.52 402.08 1632.89 406.85 C 1631.09 413.02 1626.23 417.54 1621.62 421.70 C 1616.52 426.08 1609.51 426.70 1603.09 426.25 C 1596.73 425.75 1590.57 421.62 1588.18 415.64 C 1586.20 408.83 1586.88 401.54 1588.70 394.79 C 1592.15 386.76 1599.17 380.30 1607.41 377.41 M 1611.42 382.56 C 1606.15 384.04 1602.76 388.87 1600.70 393.66 C 1598.54 398.95 1597.31 404.86 1598.50 410.54 C 1599.25 414.31 1601.30 418.27 1605.06 419.76 C 1608.11 420.50 1611.48 419.99 1613.99 418.00 C 1619.31 414.07 1621.85 407.43 1622.80 401.09 C 1623.25 395.93 1623.32 390.24 1620.26 385.80 C 1618.36 383.02 1614.68 381.40 1611.42 382.56 Z" />
<path fill="#b8b8b8" opacity="1.00" d=" M 719.77 385.80 C 722.97 382.58 726.25 378.91 730.94 378.02 C 735.70 377.52 740.81 376.64 745.33 378.75 C 747.93 380.01 751.11 380.73 752.70 383.38 C 755.48 387.78 754.64 394.29 750.20 397.33 C 743.46 401.90 734.98 402.33 727.55 405.27 C 726.89 405.56 725.56 406.15 724.89 406.44 L 724.54 406.58 L 724.38 406.90 C 721.43 410.45 724.35 414.96 727.60 417.05 C 730.72 418.74 734.46 418.31 737.64 417.00 C 741.11 415.71 744.91 415.10 748.59 415.73 C 748.33 420.64 743.45 422.92 739.48 424.45 C 734.93 426.52 729.86 426.09 725.01 426.04 C 717.98 425.97 711.69 420.10 710.80 413.18 C 708.75 403.41 711.27 391.83 719.77 385.80 M 730.30 385.21 C 726.39 388.62 722.33 393.33 723.10 398.89 C 730.02 399.70 737.38 397.07 742.30 392.17 C 745.07 389.69 743.55 385.16 740.58 383.61 C 737.19 382.51 732.98 382.53 730.30 385.21 Z" />
<path fill="#b8b8b8" opacity="1.00" d=" M 846.61 384.30 C 851.51 384.15 854.70 379.93 859.09 378.44 C 863.21 377.59 867.43 378.65 871.56 379.08 C 873.47 380.78 875.06 382.79 876.70 384.75 C 882.07 382.01 887.78 379.40 893.98 379.72 C 896.74 379.72 898.75 381.84 900.92 383.25 C 902.60 386.90 902.46 391.00 902.18 394.92 C 902.05 399.00 901.63 403.09 900.62 407.05 C 899.66 408.60 899.30 410.61 900.62 412.10 C 900.94 412.65 901.58 413.74 901.90 414.29 C 902.36 416.26 902.84 418.22 903.22 420.21 C 899.46 422.98 894.35 423.69 890.05 421.84 C 889.91 416.16 889.27 410.49 889.22 404.82 C 890.44 400.80 890.96 396.15 888.28 392.58 C 887.31 390.16 885.25 388.40 882.52 388.92 C 875.90 394.62 874.47 403.82 873.09 411.97 C 872.33 416.41 872.39 421.74 868.64 424.88 C 864.73 425.84 860.72 426.14 856.84 424.84 C 856.81 423.32 856.86 421.78 857.38 420.34 C 859.82 412.41 861.59 404.27 862.92 396.08 C 863.27 392.82 863.28 389.22 860.66 386.84 C 852.61 387.67 847.73 395.78 845.89 402.95 C 843.40 409.91 843.44 417.99 838.93 424.07 C 837.35 424.25 835.61 424.90 834.16 423.93 C 831.84 422.49 831.54 419.51 831.07 417.07 C 830.86 411.02 830.77 404.93 831.73 398.94 C 832.28 393.02 831.33 386.13 835.39 381.24 C 839.26 379.68 844.04 380.75 846.45 384.25 L 846.50 384.31 C 846.53 384.31 846.58 384.30 846.61 384.30 Z" />
<path fill="#b8b8b8" opacity="1.00" d=" M 1254.76 378.78 C 1262.44 377.53 1270.35 377.78 1278.02 379.05 C 1280.33 379.37 1281.46 381.86 1280.99 383.99 C 1279.64 392.31 1277.96 400.58 1277.03 408.95 C 1276.81 411.01 1277.08 413.11 1278.23 414.89 C 1279.81 414.99 1281.51 415.22 1282.74 416.37 C 1283.28 417.67 1282.93 419.17 1283.06 420.56 C 1279.36 426.19 1271.63 426.36 1265.90 424.22 C 1263.63 423.54 1262.91 421.04 1262.75 418.96 C 1262.39 417.53 1261.80 417.48 1261.00 418.79 C 1256.19 422.65 1250.41 426.88 1243.87 426.01 C 1240.02 425.59 1235.87 423.49 1234.49 419.65 C 1232.24 415.47 1232.95 410.58 1232.92 406.03 C 1233.08 393.45 1242.63 381.79 1254.76 378.78 M 1256.41 383.38 C 1246.30 389.02 1244.04 402.16 1245.22 412.74 C 1246.52 415.26 1248.75 418.66 1252.07 417.91 C 1257.81 416.96 1261.77 411.91 1263.79 406.77 C 1266.41 399.90 1267.47 392.40 1266.83 385.08 C 1264.74 381.61 1259.72 383.12 1256.41 383.38 Z" />
<path fill="#b8b8b8" opacity="1.00" d=" M 1460.66 383.14 C 1464.52 378.90 1471.78 376.20 1476.68 380.36 C 1477.40 382.59 1476.82 385.04 1476.85 387.35 C 1480.20 385.24 1482.99 382.13 1486.85 380.89 C 1488.80 380.17 1490.80 379.54 1492.81 378.91 C 1495.05 380.06 1497.44 381.46 1498.16 384.07 C 1498.54 386.14 1496.33 387.09 1494.84 387.85 C 1491.26 389.13 1487.47 389.99 1483.68 390.05 C 1477.02 395.07 1474.40 403.92 1475.02 411.98 C 1474.78 415.52 1476.66 419.36 1474.63 422.62 C 1470.62 426.23 1464.32 426.87 1459.56 424.39 C 1458.00 423.57 1457.47 421.67 1457.28 420.06 C 1457.62 411.01 1463.93 403.11 1462.96 393.91 C 1462.68 390.23 1459.96 386.91 1460.66 383.14 Z" />
<path fill="#b8b8b8" opacity="1.00" d=" M 1642.67 383.88 C 1645.23 379.26 1651.25 378.15 1656.08 377.83 C 1659.30 377.54 1660.28 381.53 1660.47 384.05 C 1660.27 391.77 1658.94 399.43 1657.64 407.04 C 1656.69 408.59 1656.22 410.64 1657.67 412.08 C 1658.31 413.05 1658.90 414.06 1659.45 415.12 L 1659.61 415.43 L 1659.91 415.58 C 1660.87 416.06 1661.86 416.55 1662.87 417.04 C 1668.11 415.40 1672.03 411.18 1674.28 406.27 C 1676.39 402.41 1676.54 397.89 1678.33 393.96 C 1679.51 392.42 1679.39 390.43 1678.43 388.83 C 1678.35 385.57 1678.52 381.43 1681.17 379.06 C 1683.91 378.35 1687.03 378.84 1689.00 381.01 C 1692.73 384.30 1690.87 389.66 1690.31 393.88 C 1689.81 400.43 1687.49 407.34 1690.25 413.69 C 1691.02 416.24 1692.74 419.37 1690.85 421.83 C 1688.98 424.35 1685.80 425.04 1683.01 425.98 C 1680.48 425.19 1677.70 424.36 1676.16 422.05 C 1675.04 420.76 1675.39 418.59 1673.81 417.69 C 1675.48 417.28 1674.93 414.80 1673.30 416.02 C 1672.95 416.46 1672.27 417.33 1671.92 417.77 C 1668.25 421.24 1663.67 423.98 1658.90 425.72 C 1654.24 426.80 1648.18 425.44 1646.15 420.65 C 1643.66 409.56 1648.32 398.56 1648.00 387.48 C 1646.19 386.30 1644.36 385.17 1642.67 383.88 Z" />
</g>
</svg>
