<?xml version="1.0" encoding="UTF-8"?>
<svg width="100" height="100" version="1.1" viewBox="0 0 100 100" xmlns="http://www.w3.org/2000/svg" xmlns:xlink="http://www.w3.org/1999/xlink">
    <!--Generated by IJSVG (https://github.com/iconjar/IJSVG)-->
    <g transform="scale(4.16667)">
        <path fill="#B8E986" d="M21.5,4h-19c-1.378,0 -2.5,1.121 -2.5,2.5v1v3v7c0,1.379 1.122,2.5 2.5,2.5h19c1.378,0 2.5,-1.121 2.5,-2.5v-7v-3v-1c0,-1.379 -1.122,-2.5 -2.5,-2.5Zm-19,1h19c0.827,0 1.5,0.673 1.5,1.5v0.5h-22v-0.5c0,-0.827 0.673,-1.5 1.5,-1.5Zm20.5,5h-22v-2h22v2Zm-1.5,9h-19c-0.827,0 -1.5,-0.673 -1.5,-1.5v-6.5h22v6.5c0,0.827 -0.673,1.5 -1.5,1.5Z"></path>
        <path fill="#B8E986" d="M3.5,15h4c0.276,0 0.5,-0.224 0.5,-0.5c0,-0.276 -0.224,-0.5 -0.5,-0.5h-4c-0.276,0 -0.5,0.224 -0.5,0.5c0,0.276 0.224,0.5 0.5,0.5Z"></path>
        <path fill="#B8E986" d="M10.5,16h-7c-0.276,0 -0.5,0.224 -0.5,0.5c0,0.276 0.224,0.5 0.5,0.5h7c0.276,0 0.5,-0.224 0.5,-0.5c0,-0.276 -0.224,-0.5 -0.5,-0.5Z"></path>
    </g>
</svg>