<?xml version="1.0" encoding="UTF-8"?>
<svg width="100" height="100" version="1.1" viewBox="0 0 100 100" xmlns="http://www.w3.org/2000/svg" xmlns:xlink="http://www.w3.org/1999/xlink">
    <!--Generated by IJSVG (https://github.com/iconjar/IJSVG)-->
    <g transform="scale(4.16667)">
        <path fill="none" d="M0,0h24v24h-24Zm15.35,6.41l-1.77,-1.77c-0.2,-0.2 -0.51,-0.2 -0.71,0l-6.87,6.89v2.47h2.47l6.88,-6.88c0.2,-0.19 0.2,-0.51 0,-0.71Z"></path>
        <path fill="#518A0F" d="M20,2h-16c-1.1,0 -1.99,0.9 -1.99,2l-0.01,18l4,-4h14c1.1,0 2,-0.9 2,-2v-12c0,-1.1 -0.9,-2 -2,-2Zm-14,12v-2.47l6.88,-6.88c0.2,-0.2 0.51,-0.2 0.71,0l1.77,1.77c0.2,0.2 0.2,0.51 0,0.71l-6.89,6.87h-2.47Zm12,0h-7.5l2,-2h5.5v2Z"></path>
    </g>
</svg>