<?xml version="1.0" encoding="UTF-8"?>
<svg width="100" height="100" version="1.1" viewBox="0 0 100 100" xmlns="http://www.w3.org/2000/svg" xmlns:xlink="http://www.w3.org/1999/xlink">
    <!--Generated by IJSVG (https://github.com/iconjar/IJSVG)-->
    <g transform="scale(3.33333)">
        <path fill="#FF334C" d="M8,17c-2.206,0 -4,1.794 -4,4c0,2.206 1.794,4 4,4c2.206,0 4,-1.794 4,-4c0,-2.206 -1.794,-4 -4,-4Z"></path>
        <path fill="#FF334C" d="M22,17c-2.206,0 -4,1.794 -4,4c0,2.206 1.794,4 4,4c2.206,0 4,-1.794 4,-4c0,-2.206 -1.794,-4 -4,-4Z"></path>
        <path fill="#FF334C" d="M28.537,10.306l-5.293,-4.373c-0.728,-0.602 -1.651,-0.933 -2.598,-0.933h-12.581c-0.947,0 -1.82,0.37 -2.473,1h3.908c0.276,0 0.5,0.224 0.5,0.5c0,0.276 -0.224,0.5 -0.5,0.5h-4.641h-4.359c-0.276,0 -0.5,0.224 -0.5,0.5c0,0.276 0.224,0.5 0.5,0.5h3.853l-1.009,2h3.156c0.276,0 0.5,0.224 0.5,0.5c0,0.276 -0.224,0.5 -0.5,0.5h-3.66h-2.34c-0.276,0 -0.5,0.224 -0.5,0.5c0,0.276 0.224,0.5 0.5,0.5h1.836l-1.009,2h3.173c0.276,0 0.5,0.224 0.5,0.5c0,0.276 -0.224,0.5 -0.5,0.5h-3.677h-0.323c-0.276,0 -0.5,0.224 -0.5,0.5c0,0.222 0.146,0.403 0.346,0.469c-0.221,0.467 -0.346,0.981 -0.346,1.497c0,1.489 0.957,2.824 2.382,3.322c0.142,0.05 0.3,0.033 0.429,-0.047c0.129,-0.08 0.214,-0.213 0.233,-0.363c0.312,-2.496 2.443,-4.378 4.958,-4.378c2.56,0 4.746,1.997 4.977,4.545c0.023,0.257 0.239,0.455 0.498,0.455h3.051c0.259,0 0.475,-0.197 0.498,-0.455c0.229,-2.548 2.414,-4.545 4.974,-4.545c2.336,0 4.337,1.591 4.866,3.87c0.047,0.205 0.218,0.358 0.427,0.383c0.211,0.027 0.412,-0.083 0.506,-0.271l1.202,-2.382c0.655,-1.296 0.999,-2.747 0.999,-4.196c0,-1.2 -0.533,-2.33 -1.463,-3.098Zm-2.001,3.193l-7,0.5c-0.012,0.001 -0.023,0.001 -0.036,0.001c-0.143,0 -0.28,-0.061 -0.375,-0.169c-0.104,-0.117 -0.146,-0.275 -0.115,-0.429l1,-5c0.034,-0.169 0.151,-0.308 0.312,-0.369c0.16,-0.061 0.341,-0.036 0.478,0.067l6,4.5c0.167,0.125 0.239,0.341 0.18,0.541c-0.058,0.2 -0.235,0.343 -0.444,0.358Z"></path>
    </g>
</svg>