<?xml version="1.0" encoding="UTF-8"?>
<svg width="100" height="100" version="1.1" viewBox="0 0 100 100" xmlns="http://www.w3.org/2000/svg" xmlns:xlink="http://www.w3.org/1999/xlink">
    <!--Generated by IJSVG (https://github.com/iconjar/IJSVG)-->
    <g transform="scale(4.16667)">
        <path fill="#54A5F0" d="M21.5,0.001h-10c-1.378,0 -2.5,1.122 -2.5,2.5v1c0,0.276 0.224,0.5 0.5,0.5c0.276,0 0.5,-0.224 0.5,-0.5v-1c0,-0.827 0.673,-1.5 1.5,-1.5h10c0.827,0 1.5,0.673 1.5,1.5v5c0,0.827 -0.673,1.5 -1.5,1.5h-1.5c-0.144,0 -0.281,0.062 -0.376,0.171l-2.425,2.771l0.297,-2.38c0.018,-0.142 -0.026,-0.286 -0.121,-0.393c-0.095,-0.107 -0.231,-0.169 -0.375,-0.169h-0.5c-0.276,0 -0.5,0.224 -0.5,0.5c0,0.254 0.189,0.464 0.434,0.496l-0.43,3.442c-0.027,0.218 0.091,0.428 0.292,0.518c0.066,0.03 0.136,0.044 0.205,0.044c0.141,0 0.279,-0.059 0.375,-0.171l3.351,-3.829h1.273c1.378,0 2.5,-1.122 2.5,-2.5v-5c0,-1.378 -1.122,-2.5 -2.5,-2.5Z"></path>
        <path fill="#54A5F0" d="M15.586,19.125l-2.935,-0.734l-0.224,-0.897c0.779,-0.791 1.316,-1.857 1.491,-2.954c0.453,-0.155 0.797,-0.557 0.859,-1.055l0.196,-1.565c0.045,-0.361 -0.066,-0.726 -0.306,-1c-0.122,-0.14 -0.272,-0.251 -0.439,-0.326l0.066,-1.355l0.266,-0.266c0.468,-0.497 0.856,-1.347 0.054,-2.573c-0.609,-0.929 -1.637,-1.4 -3.056,-1.4c-0.55,0 -1.812,0 -3,0.785c-3.399,0.081 -3.862,1.678 -3.862,3.237c0,0.339 0.076,1.061 0.132,1.546c-0.186,0.073 -0.354,0.19 -0.489,0.343c-0.244,0.275 -0.357,0.643 -0.312,1.008l0.196,1.565c0.066,0.531 0.454,0.955 0.953,1.083c0.174,1.052 0.683,2.08 1.415,2.855l-0.242,0.969l-2.935,0.734c-2.01,0.502 -3.414,2.301 -3.414,4.374c0,0.133 0.052,0.261 0.146,0.354c0.094,0.093 0.222,0.146 0.354,0.146l18,-0.002c0.276,0 0.5,-0.224 0.5,-0.5c0,-2.072 -1.404,-3.87 -3.414,-4.372Zm-14.55,3.872c0.199,-1.395 1.221,-2.552 2.622,-2.903l3.226,-0.807c0.179,-0.045 0.32,-0.185 0.364,-0.364l0.384,-1.535c0.044,-0.176 -0.011,-0.362 -0.143,-0.486c-0.772,-0.723 -1.283,-1.783 -1.366,-2.835c-0.021,-0.26 -0.238,-0.46 -0.499,-0.46h-0.127c-0.142,0 -0.262,-0.107 -0.28,-0.248l-0.196,-1.565c-0.014,-0.111 0.037,-0.187 0.069,-0.223c0.031,-0.035 0.101,-0.095 0.292,-0.095c0.144,0 0.28,-0.061 0.375,-0.169c0.095,-0.107 0.139,-0.25 0.121,-0.393c-0.05,-0.399 -0.18,-1.517 -0.18,-1.894c0,-1.209 0.227,-2.211 3.026,-2.239c0.102,-0.001 0.203,-0.033 0.285,-0.093c0.848,-0.607 1.765,-0.689 2.55,-0.689c1.061,0 1.807,0.319 2.219,0.948c0.476,0.726 0.294,1.085 0.065,1.329l-0.392,0.392c-0.088,0.088 -0.14,0.205 -0.146,0.329l-0.095,1.958c-0.007,0.136 0.042,0.268 0.135,0.367c0.093,0.098 0.222,0.156 0.358,0.157c0.111,0.001 0.18,0.061 0.211,0.097c0.031,0.035 0.081,0.111 0.067,0.219l-0.196,1.565c-0.018,0.142 -0.138,0.248 -0.319,0.248c-0.261,0 -0.478,0.2 -0.499,0.46c-0.085,1.085 -0.62,2.166 -1.43,2.893c-0.138,0.123 -0.196,0.313 -0.151,0.493l0.368,1.47c0.045,0.179 0.185,0.32 0.364,0.364l3.226,0.807c1.4,0.35 2.422,1.508 2.621,2.904l-16.929,-0.002Z"></path>
    </g>
</svg>